<?xml version="1.0"?>
<svg xmlns="http://www.w3.org/2000/svg" xmlns:xlink="http://www.w3.org/1999/xlink" version="1.1" viewBox="0 0 224 224" width="50px" height="50px"><g transform=""><g fill="none" fill-rule="nonzero" stroke="none" stroke-width="1" stroke-linecap="butt" stroke-linejoin="miter" stroke-miterlimit="10" stroke-dasharray="" stroke-dashoffset="0" font-family="none" font-weight="none" font-size="none" text-anchor="none" style="mix-blend-mode: normal"><path d="M0,224v-224h224v224z" fill="none"/><path d="M0,112c0,-61.85589 50.14411,-112 112,-112c61.85589,0 112,50.14411 112,112c0,61.85589 -50.14411,112 -112,112c-61.85589,0 -112,-50.14411 -112,-112zM112,215.04c56.90742,0 103.04,-46.13258 103.04,-103.04c0,-56.90742 -46.13258,-103.04 -103.04,-103.04c-56.90742,0 -103.04,46.13258 -103.04,103.04c0,56.90742 46.13258,103.04 103.04,103.04z" fill="#ffffff"/><g fill="#ffffff"><path d="M79.744,33.152c-25.68838,0 -46.592,20.90362 -46.592,46.592v64.512c0,25.68838 20.90362,46.592 46.592,46.592h64.512c25.68838,0 46.592,-20.90362 46.592,-46.592v-64.512c0,-25.68838 -20.90362,-46.592 -46.592,-46.592zM79.744,40.32h64.512c21.81396,0 39.424,17.61004 39.424,39.424v64.512c0,21.81396 -17.61004,39.424 -39.424,39.424h-64.512c-21.81396,0 -39.424,-17.61004 -39.424,-39.424v-64.512c0,-21.81396 17.61004,-39.424 39.424,-39.424zM155.008,61.824c-3.95878,0 -7.168,3.20922 -7.168,7.168c0,3.95878 3.20922,7.168 7.168,7.168c3.95878,0 7.168,-3.20922 7.168,-7.168c0,-3.95878 -3.20922,-7.168 -7.168,-7.168zM112,72.576c-21.73082,0 -39.424,17.69318 -39.424,39.424c0,21.73082 17.69318,39.424 39.424,39.424c21.73082,0 39.424,-17.69318 39.424,-39.424c0,-21.73082 -17.69318,-39.424 -39.424,-39.424zM112,79.744c17.85695,0 32.256,14.39905 32.256,32.256c0,17.85695 -14.39905,32.256 -32.256,32.256c-17.85695,0 -32.256,-14.39905 -32.256,-32.256c0,-17.85695 14.39905,-32.256 32.256,-32.256z"/></g><path d="" fill="none"/><path d="" fill="none"/><path d="M112,224c-61.85589,0 -112,-50.14411 -112,-112v0c0,-61.85589 50.14411,-112 112,-112v0c61.85589,0 112,50.14411 112,112v0c0,61.85589 -50.14411,112 -112,112z" fill="none"/><path d="M112,215.04c-56.90742,0 -103.04,-46.13258 -103.04,-103.04v0c0,-56.90742 46.13258,-103.04 103.04,-103.04v0c56.90742,0 103.04,46.13258 103.04,103.04v0c0,56.90742 -46.13258,103.04 -103.04,103.04z" fill="none"/><path d="M112,224c-61.85589,0 -112,-50.14411 -112,-112v0c0,-61.85589 50.14411,-112 112,-112v0c61.85589,0 112,50.14411 112,112v0c0,61.85589 -50.14411,112 -112,112z" fill="none"/><path d="M112,215.04c-56.90742,0 -103.04,-46.13258 -103.04,-103.04v0c0,-56.90742 46.13258,-103.04 103.04,-103.04v0c56.90742,0 103.04,46.13258 103.04,103.04v0c0,56.90742 -46.13258,103.04 -103.04,103.04z" fill="none"/></g></g></svg>
